<svg width="118" height="118" viewBox="0 0 118 118" fill="none" xmlns="http://www.w3.org/2000/svg">
<g clip-path="url(#clip0_72_70)">
<path d="M75.3233 52.5553C75.5434 52.63 75.7698 52.6653 75.9899 52.6653C76.8558 52.6653 77.6636 52.1212 77.9565 51.2553C78.6064 49.3489 80.6851 48.3252 82.5915 48.971C86.6658 50.3499 91.1119 48.1632 92.4928 44.0868C92.8625 43.0028 92.281 41.8212 91.1949 41.4515C90.1047 41.084 88.9293 41.6654 88.5597 42.7515C87.9118 44.6599 85.8331 45.6837 83.9247 45.0358C79.8566 43.6632 75.4064 45.8457 74.0233 49.92C73.6558 51.004 74.2372 52.1856 75.3233 52.5553Z" fill="white"/>
<path d="M80.2366 38.0856C80.4567 38.1604 80.6831 38.1957 80.9032 38.1957C81.7691 38.1957 82.5769 37.6516 82.8697 36.7857C83.1833 35.8616 83.8375 35.114 84.7138 34.682C85.5901 34.2501 86.5807 34.1878 87.5048 34.5014C91.5791 35.8803 96.0231 33.6936 97.4061 29.6151C97.7758 28.5311 97.1922 27.3495 96.1082 26.9798C95.0222 26.606 93.8426 27.1937 93.4751 28.2798C92.8272 30.1903 90.7526 31.2141 88.84 30.5662C86.8631 29.8954 84.747 30.0325 82.8781 30.9566C81.0091 31.8786 79.6095 33.4755 78.9387 35.4504C78.567 36.5365 79.1505 37.716 80.2366 38.0856Z" fill="white"/>
<path d="M85.1457 23.6156C85.3679 23.6904 85.5922 23.7257 85.8144 23.7257C86.6804 23.7257 87.4882 23.1816 87.781 22.3156C88.2586 20.9077 89.7974 20.1497 91.2032 20.6273C92.9372 21.215 94.7958 21.0946 96.4384 20.2868C98.0789 19.4769 99.3062 18.0773 99.896 16.3433C100.266 15.2593 99.6842 14.0777 98.5981 13.708C97.5079 13.3363 96.3325 13.9219 95.9629 15.008C95.7303 15.6912 95.2464 16.2436 94.6006 16.5613C93.9548 16.879 93.2238 16.9268 92.5385 16.6921C88.9626 15.4856 85.0606 17.4044 83.8478 20.9783C83.4803 22.0665 84.0597 23.246 85.1457 23.6156Z" fill="white"/>
<path d="M100.189 52.4017C99.8274 52.1546 99.4204 52.0134 99.0051 51.9594C103.131 38.5507 105.395 25.4139 105.719 12.9023C105.821 8.96708 103.898 3.71323 100.021 1.2815C98.1599 0.112359 95.1114 -0.851194 91.1534 1.18597C84.9505 4.38605 80.5148 13.7994 76.9514 21.3666C76.7458 21.8027 76.5443 22.2284 76.345 22.65C75.5579 19.0304 73.1657 15.9342 69.7642 14.3185C68.9626 10.4643 65.9058 7.44492 62.064 6.66203C62.0225 6.44606 61.9706 6.23425 61.9062 6.02035C61.115 3.31659 58.729 1.2815 55.9692 0.953392C54.4138 0.768573 52.8729 1.09045 51.5563 1.86088C50.435 1.23581 49.1765 0.903553 47.8849 0.903553C44.2736 0.903553 41.2397 3.4225 40.4485 6.79286C36.5008 7.86855 33.606 11.4923 33.5748 15.7037C29.0706 16.8666 25.7896 20.9367 25.7896 25.7774C25.7896 27.0607 26.0305 28.3316 26.4936 29.5298C25.3244 30.9731 24.6765 32.7797 24.6765 34.6757C24.6765 35.8137 24.9112 36.9101 25.3535 37.9235C23.2789 35.66 20.3592 33.8097 17.0802 33.9302C15.9339 33.9676 15.0327 34.9249 15.068 36.0712C15.1033 37.1946 16.0253 38.0834 17.1425 38.0834C17.2131 38.0855 17.2775 38.0793 17.344 38.0793C19.2898 38.0793 21.0985 39.3668 22.4151 40.8619C19.1215 41.811 15.151 43.356 13.2987 46.8489C12.1835 48.9566 12.0527 51.542 12.7962 54.5033C12.4369 55.1034 12.2396 55.8012 12.277 56.5446L15.8114 106.772C16.1333 113.07 21.3248 118.002 27.6295 118.002H85.9224C92.227 118.002 97.4186 113.07 97.7384 106.809L101.362 54.8356C101.362 54.8231 101.364 54.8106 101.364 54.7982C101.422 53.8409 100.98 52.9458 100.189 52.4017ZM78.0395 28.5891C78.8619 27.0545 79.759 25.1523 80.708 23.1359C83.8291 16.5073 88.107 7.43038 93.0556 4.87613C94.8622 3.94581 96.4176 3.92712 97.8131 4.79722C100.22 6.30901 101.636 10.1238 101.568 12.7943C101.25 25.0713 99.0072 37.9921 94.8996 51.1994C94.7646 51.6334 94.4656 52.5097 94.0399 53.7121L90.5013 55.2841C90.4245 55.3194 90.3497 55.3568 90.2771 55.4025C89.2554 56.0151 88.1091 56.3183 86.9628 56.3307C85.8165 56.3183 84.6722 56.0151 83.6506 55.4025L82.1699 54.5137C80.4671 53.492 78.5587 52.9811 76.6503 52.9811C76.6274 52.9811 76.6046 52.9853 76.5796 52.9853C74.6484 52.9728 72.713 53.4774 70.9894 54.5137L69.5108 55.4025C68.6864 55.8967 67.7748 56.1376 66.8527 56.2414C66.9047 56.0608 66.9649 55.8843 67.0189 55.7057C67.5879 53.7723 68.1984 51.866 68.838 49.9742C69.081 49.2557 69.3343 48.5413 69.5877 47.829C70.1213 46.3276 70.68 44.8449 71.2573 43.3726C71.5148 42.7143 71.766 42.0498 72.0318 41.3977C73.8427 36.9807 75.8404 32.6967 78.0395 28.5891ZM51.5667 33.5149C51.8097 33.2034 52.0464 32.9002 52.2707 32.6053C52.2707 32.6011 52.2748 32.597 52.2748 32.597C52.4389 32.3789 52.5822 32.1526 52.7026 31.9262C53.2135 30.9648 53.3339 29.8849 53.0972 28.83L61.765 26.934C61.8232 27.1998 61.8855 27.4636 61.9851 27.7086C62.3735 28.6597 63.0671 29.4509 64.0327 30.0033C64.3483 30.1777 64.6785 30.3522 65.0191 30.5328C65.2994 30.6803 65.5798 30.8339 65.8622 30.9876C65.9972 31.0603 66.1342 31.133 66.2692 31.2077C66.5163 31.3469 66.7551 31.5005 66.996 31.6521C67.2016 31.7788 67.4051 31.9096 67.6045 32.0488C67.835 32.2087 68.0551 32.3852 68.2752 32.5638C68.4683 32.7216 68.6532 32.8939 68.8359 33.0705C69.0332 33.2636 69.2284 33.4609 69.4091 33.6768C69.7289 34.0589 70.0362 34.4556 70.2875 34.9311C69.407 36.8748 68.5784 38.858 67.7768 40.8578C67.6522 41.1672 67.5193 41.4683 67.3968 41.7777C65.1208 42.355 62.9217 43.4349 60.2055 45.3682C56.7832 47.7999 54.2352 48.4458 50.0362 47.8373L48.7757 42.0664C47.9202 38.1644 49.7746 35.8012 51.5667 33.5149ZM61.8647 20.9035C61.9187 20.8931 61.9727 20.8869 62.0267 20.8869C62.4191 20.8869 62.7867 21.1672 62.8718 21.5618C62.9383 21.8608 62.8262 22.0955 62.7514 22.2097C62.6787 22.3219 62.5147 22.5191 62.2177 22.5835L50.7464 25.0941C50.2896 25.1938 49.8244 24.8906 49.7247 24.4379C49.6251 23.9832 49.9262 23.5159 50.381 23.4162L56.4758 22.083L61.8647 20.9035ZM55.153 53.0227C54.9952 53.033 54.8353 53.0372 54.6775 53.0538C53.5457 53.168 52.4285 53.4546 51.3674 53.9322L50.9707 52.1152C51.5688 52.165 52.1648 52.2149 52.7234 52.2149C56.345 52.2149 59.2606 51.1371 62.6123 48.7531C63.6672 48.0014 64.6017 47.4324 65.4905 46.961C65.2994 47.503 65.1105 48.0429 64.9256 48.587C64.7927 48.9774 64.6494 49.3616 64.5207 49.7541C63.9102 51.6022 63.3287 53.465 62.7867 55.3443L61.4058 54.5178C59.7029 53.4961 57.7945 52.9853 55.8861 52.9853C55.8612 52.9853 55.8342 52.9894 55.8093 52.9894C55.5891 52.9853 55.3711 53.0102 55.153 53.0227ZM30.3145 31.5483L31.6747 30.4269L30.7922 28.9047C30.2398 27.9495 29.947 26.8697 29.947 25.7774C29.947 22.4132 32.5822 19.67 35.9464 19.5288L38.4674 19.4229L37.8797 16.9683C37.78 16.5571 37.7302 16.1522 37.7302 15.768C37.7302 13.0933 39.8193 10.8402 42.4856 10.6367L44.4044 10.4913V8.42509C44.4647 6.5582 46.0034 5.0568 47.8869 5.0568C48.9709 5.0568 49.7476 5.55104 50.2065 5.96636L51.6622 7.28087L53.0577 5.90199C53.6973 5.27069 54.5757 4.97581 55.4811 5.07964C56.5942 5.21047 57.5993 6.0785 57.9233 7.19365C58.0333 7.56744 58.0645 7.92877 58.0209 8.29633L57.7779 10.6159H60.1162C63.1003 10.6159 65.5964 12.948 65.802 15.9259L65.8954 17.2902L67.185 17.7429C70.4308 18.883 72.5655 21.9543 72.4929 25.3911C72.4617 26.8593 71.9882 28.2735 71.1306 29.5132C69.7413 28.3337 68.2441 27.5383 66.9856 26.8759C66.6596 26.7035 66.344 26.5374 66.0262 26.3609C65.937 26.311 65.829 26.2238 65.7916 26.0058C65.7417 25.7067 65.8539 25.3475 66.0802 25.0838C66.9856 24.033 67.3491 22.6001 67.0563 21.2482L66.805 20.104C66.5537 18.9494 65.8643 17.963 64.8675 17.3234C63.8728 16.6859 62.6891 16.472 61.5366 16.7254L60.98 16.8479C60.9738 16.8499 60.9676 16.8479 60.9614 16.8499L54.8665 18.1831L48.919 19.481C47.7665 19.7323 46.7801 20.4197 46.1405 21.4185C45.5009 22.4132 45.2891 23.599 45.5404 24.7515L45.6649 25.3163V25.3226C45.6649 25.3226 45.667 25.3267 45.667 25.3309L45.7895 25.8936C46.0907 27.2767 47.0521 28.4417 48.3583 29.0023C48.6823 29.1415 48.9522 29.4052 49.0457 29.6731C49.0997 29.8268 49.0685 29.9057 48.9481 30.105V30.1071C48.7425 30.3833 48.5203 30.6637 48.294 30.9523C48.0655 31.243 47.8288 31.5483 47.5879 31.8639C47.5069 31.9698 47.4301 32.0799 47.3491 32.1879C47.1767 32.4226 47.0044 32.6614 46.8341 32.9106C46.7406 33.0455 46.6513 33.1847 46.56 33.3259C46.4021 33.5688 46.2506 33.8201 46.101 34.0776C46.0138 34.2271 45.9287 34.3746 45.8456 34.5303C45.6899 34.8211 45.5487 35.1263 45.4095 35.4378C45.3493 35.5707 45.2849 35.6974 45.2309 35.8365C45.0482 36.2892 44.8862 36.7627 44.7575 37.2611C44.7367 37.34 44.7284 37.4251 44.7097 37.5061C44.61 37.9298 44.529 38.3679 44.4771 38.8248C44.4564 39.0075 44.4522 39.1986 44.4397 39.3875C44.4231 39.6326 44.392 39.8652 44.392 40.1206C44.3837 40.1102 44.3754 40.0998 44.3671 40.0894C44.338 40.0521 44.3089 40.0188 44.2819 39.9815C43.9206 39.5059 43.5593 39.0677 43.1958 38.6524C43.0816 38.5216 42.9653 38.3949 42.849 38.2703C42.5438 37.9401 42.2385 37.6307 41.9312 37.34C41.8315 37.2466 41.7318 37.1448 41.6301 37.0534C41.2417 36.7066 40.8513 36.3889 40.4589 36.1065C40.3488 36.0276 40.2367 35.9611 40.1266 35.8864C39.8317 35.6891 39.5368 35.5063 39.2378 35.3444C39.0924 35.2654 38.9491 35.1886 38.8017 35.118C38.4923 34.9664 38.1808 34.8377 37.8672 34.7255C37.7634 34.6881 37.6596 34.6383 37.5557 34.6051C37.2152 34.4971 36.8725 34.4099 36.5278 34.3455C36.4883 34.3372 36.4489 34.3414 36.4094 34.3351C36.3388 34.3227 36.2703 34.2957 36.1997 34.2853C35.9588 34.25 35.7304 34.2645 35.4936 34.2479C35.3275 34.2375 35.1635 34.2022 34.9973 34.2022C34.9475 34.2022 34.8956 34.2147 34.8437 34.2147C34.5218 34.2188 34.2103 34.2562 33.8967 34.2957C33.741 34.3164 33.5852 34.3289 33.4295 34.358C33.0204 34.4327 32.6238 34.5366 32.2313 34.6612C32.171 34.6798 32.1129 34.6944 32.0527 34.7151C31.0185 35.0661 30.0384 35.5624 29.1205 36.1625C28.9315 35.6953 28.8318 35.1928 28.8318 34.6757C28.8339 33.4609 29.3738 32.3208 30.3145 31.5483ZM16.9722 48.7905C17.8507 47.1354 19.9833 45.8728 23.686 44.8138C25.4179 44.3195 27.0252 43.3954 28.3293 42.1495C28.9211 41.5825 29.4756 41.1028 30.0114 40.6667C31.6851 39.3066 33.1284 38.5673 34.4346 38.3991C34.4636 38.3949 34.4927 38.3908 34.5218 38.3887C34.935 38.343 35.3358 38.3555 35.7241 38.424C35.8259 38.4427 35.9297 38.478 36.0336 38.505C36.2267 38.5527 36.4177 38.6005 36.6109 38.6773C36.7355 38.7251 36.8601 38.7978 36.9867 38.8559C37.1674 38.9431 37.346 39.0221 37.5267 39.1321C37.6679 39.2173 37.8091 39.3273 37.9503 39.4249C38.1185 39.5433 38.2867 39.6513 38.457 39.7883C38.6148 39.915 38.7726 40.0687 38.9305 40.212C39.0883 40.3553 39.2461 40.4861 39.4039 40.646C39.5784 40.8225 39.7549 41.0281 39.9314 41.2254C40.0747 41.3853 40.218 41.5327 40.3633 41.7051C40.5606 41.9418 40.76 42.2118 40.9593 42.4734C41.086 42.6395 41.2106 42.7891 41.3373 42.9656C41.5636 43.2812 41.792 43.6322 42.0205 43.981C42.1202 44.1347 42.2219 44.2718 42.3216 44.4296C42.6518 44.9508 42.984 45.5053 43.3184 46.095C44.8468 48.7926 45.3535 52.7776 44.6889 56.2477C44.5789 56.2373 44.4709 56.2207 44.3608 56.204C43.5696 56.0691 42.8075 55.8157 42.1139 55.4004L40.6333 54.5116C38.9305 53.4899 37.022 52.979 35.1136 52.979C35.0908 52.979 35.0679 52.9832 35.043 52.9832C33.1118 52.9707 31.1763 53.4754 29.4527 54.5116L28.7322 54.9435C27.4758 55.6974 26.0679 56.0774 24.6599 56.0898C23.2499 56.0774 21.844 55.6994 20.5876 54.9435L17.7946 53.2656L17.7925 53.2635C17.4249 53.0455 17.0283 52.896 16.6213 52.8212C16.2953 51.1786 16.4116 49.8496 16.9722 48.7905ZM93.6017 106.558C93.392 110.645 90.0216 113.847 85.9307 113.847H27.6357C23.5427 113.847 20.1744 110.645 19.9626 106.519L16.5071 57.423L18.3137 58.507C20.272 59.6824 22.4711 60.2597 24.6641 60.2472C26.859 60.2597 29.0561 59.6824 31.0144 58.507L31.735 58.0751C32.7567 57.4604 33.9009 57.1572 35.0472 57.1448C36.1935 57.1572 37.3377 57.4604 38.3615 58.0751L39.8421 58.9639C41.7152 60.0873 43.8375 60.5691 45.9349 60.4549C46.1218 60.4466 46.3087 60.4466 46.4977 60.43C46.5205 60.4279 46.5413 60.4154 46.5662 60.4134C47.9845 60.2535 49.3759 59.807 50.6592 59.076C50.7797 59.0324 50.9084 59.0303 51.0206 58.9639L52.5012 58.0751C53.5229 57.4604 54.6671 57.1572 55.8134 57.1448C56.9597 57.1572 58.1039 57.4604 59.1277 58.0751L60.6083 58.9639C62.1803 59.9046 63.9289 60.3926 65.6878 60.4653C65.7231 60.4674 65.7604 60.4715 65.7957 60.4715C66.4021 60.4902 67.0085 60.4715 67.6107 60.3864C67.9554 60.3428 68.2898 60.2555 68.6283 60.1787C68.7923 60.1393 68.9564 60.1039 69.1183 60.0562C70.0404 59.8008 70.9437 59.4664 71.7847 58.9618L73.2654 58.073C74.287 57.4583 75.4313 57.1551 76.5776 57.1427C77.7239 57.1551 78.8681 57.4583 79.8919 58.073L81.3725 58.9618C83.0878 59.9897 85.0128 60.4944 86.9358 60.486C86.9669 60.486 87.0001 60.4923 87.0313 60.4923C88.8961 60.4923 90.763 60.0063 92.4367 59.0303L96.5111 57.2195C96.5983 57.1801 96.6606 57.1053 96.7416 57.0555L97.0593 56.9143L93.6017 106.558Z" fill="white"/>
<path d="M24.7347 89.3031H39.271C40.4173 89.3031 41.3476 88.3749 41.3476 87.2265C41.3476 86.0782 40.4173 85.1499 39.271 85.1499H24.7347C23.5884 85.1499 22.658 86.0782 22.658 87.2265C22.658 88.3749 23.5884 89.3031 24.7347 89.3031Z" fill="white"/>
<path d="M24.7347 97.6098H43.4243C44.5706 97.6098 45.5009 96.6815 45.5009 95.5332C45.5009 94.3848 44.5706 93.4565 43.4243 93.4565H24.7347C23.5884 93.4565 22.658 94.3848 22.658 95.5332C22.658 96.6815 23.5884 97.6098 24.7347 97.6098Z" fill="white"/>
<path d="M47.5775 101.763H24.7347C23.5884 101.763 22.658 102.691 22.658 103.84C22.658 104.988 23.5884 105.916 24.7347 105.916H47.5775C48.7238 105.916 49.6541 104.988 49.6541 103.84C49.6541 102.691 48.7238 101.763 47.5775 101.763Z" fill="white"/>
<path d="M60.0373 101.763H55.884C54.7377 101.763 53.8074 102.691 53.8074 103.84C53.8074 104.988 54.7377 105.916 55.884 105.916H60.0373C61.1836 105.916 62.1139 104.988 62.1139 103.84C62.1139 102.691 61.1836 101.763 60.0373 101.763Z" fill="white"/>
</g>
<defs>
<clipPath id="clip0_72_70">
<rect width="118" height="118" fill="white"/>
</clipPath>
</defs>
</svg>
