<svg width="130" height="130" viewBox="0 0 130 130" fill="none" xmlns="http://www.w3.org/2000/svg">
<path d="M57.9618 20.7775C53.7303 23.1955 50.5154 25.6408 47.19 28.9662C39.8255 36.3866 35.4562 44.8496 33.67 55.2093C32.9277 59.6059 33.0655 67.987 34.0002 72.2471C38.3968 92.8014 54.9666 107.915 75.6314 110.306C90.5255 112.01 105.749 106.267 115.999 95.1375C119.132 91.7575 121.44 88.3775 123.583 84.0628C126.606 78.0178 127.98 73.044 128.557 66.0916C129.546 54.2473 125.369 41.3604 117.511 32.0173C116.576 30.9175 115.532 29.9282 115.175 29.7917C113.828 29.2691 112.069 30.7264 112.427 32.1005C112.509 32.458 113.361 33.6397 114.295 34.7655C119.873 41.4423 123.473 49.9885 124.297 58.5347L124.462 60.5133L121.852 60.5952C118.775 60.733 118.087 61.1178 118.087 62.7662C118.087 64.4146 118.775 64.7994 121.824 64.9099L124.407 65.0204V65.7354C124.407 66.1475 124.215 67.6594 123.995 69.0881C122.511 78.8966 118.143 87.2777 110.86 94.2847C103.962 100.934 94.2357 105.414 85.332 106.073L82.914 106.265V103.628C82.914 101.127 82.8867 100.99 82.199 100.44C81.237 99.6706 80.3023 99.7252 79.4781 100.551C78.8463 101.155 78.7917 101.429 78.7917 103.711V106.184H77.4722C75.4936 106.184 70.4106 105.194 67.4973 104.26C66.0686 103.793 63.3204 102.638 61.3418 101.649C48.0415 95.0543 38.9181 81.754 37.4348 66.8053L37.2424 64.9645H39.7436C41.9419 64.9645 42.2994 64.8826 42.9585 64.3327C43.9751 63.4253 43.9751 62.1071 42.9585 61.1997C42.2994 60.6498 41.9419 60.5679 39.7436 60.5679H37.271L37.4361 58.8363C38.259 50.8946 41.392 42.871 46.0915 36.6063C49.8836 31.5506 55.4892 26.7419 60.6827 24.1302C63.4309 22.7561 64.1173 21.4093 62.7159 20.0352C61.7266 19.0186 60.8205 19.1837 57.9618 20.7775Z" fill="white"/>
<path d="M53.8681 33.0883C53.1258 33.3912 52.6864 34.1881 52.6864 35.2048C52.6864 35.8365 54.5272 37.7878 64.09 47.3779L75.5209 58.8088L74.971 60.0451C74.23 61.6116 74.23 63.9204 74.945 65.3764C75.5768 66.7232 75.907 67.108 77.1433 68.0414C80.249 70.3775 84.838 69.2504 86.5956 65.7326C87.3652 64.1934 87.5576 62.0497 87.035 60.6769C86.7334 59.9346 86.9804 59.6604 96.2403 50.3992C105.253 41.3862 105.721 40.8636 105.721 39.9016C105.721 39.132 105.556 38.7472 105.008 38.3351C103.468 37.1261 103.55 37.0715 93.3283 47.2661L83.7928 56.8016L82.3641 56.4454C81.5945 56.253 80.5779 56.1984 80.0839 56.2803C79.2324 56.4454 78.9022 56.1425 67.5259 44.7935C60.0795 37.3471 55.5997 33.0597 55.1603 32.9778C54.7742 32.8959 54.197 32.9506 53.8681 33.0883Z" fill="white"/>
<path d="M9.5433 43.3379C8.1146 44.0802 8.1146 46.2239 9.5706 46.9649C10.257 47.3497 11.5219 47.377 17.8971 47.3224C24.8495 47.2405 25.4813 47.2119 26.0039 46.7179C26.8008 46.0029 26.8008 44.3545 26.0039 43.6408C25.4813 43.1468 24.8495 43.1182 17.8152 43.0363C12.0718 42.9817 10.0659 43.0636 9.5433 43.3379Z" fill="white"/>
<path d="M2.1242 61.3647C1.6575 61.8041 1.3 62.4359 1.3 62.7661C1.3 63.0963 1.6575 63.7281 2.1242 64.1675L2.9211 64.9917L16.0017 64.9098L29.1096 64.8279L29.6322 64.1688C30.2913 63.3446 30.2913 62.1902 29.6322 61.366L29.1096 60.7069L16.0017 60.625L2.9211 60.5405L2.1242 61.3647Z" fill="white"/>
<path d="M9.5433 78.5117C8.1146 79.254 8.1146 81.3964 9.5706 82.1387C10.257 82.5235 11.5219 82.5508 17.8971 82.4962C24.8495 82.4143 25.4813 82.3857 26.0039 81.8917C26.8008 81.1767 26.8008 79.5283 26.0039 78.8146C25.4813 78.3206 24.8495 78.292 17.8152 78.2101C12.0718 78.1542 10.0659 78.2374 9.5433 78.5117Z" fill="white"/>
</svg>
