<svg width="145" height="145" viewBox="0 0 145 145" fill="none" xmlns="http://www.w3.org/2000/svg">
<path d="M43.999 94.644C46.5824 94.644 49.0111 93.6386 50.8358 91.8116C52.0876 90.5621 52.8828 89.0422 53.3034 87.4446L58.3809 92.5196C60.2056 94.3466 62.6343 95.352 65.2152 95.352C67.7985 95.352 70.225 94.3466 72.0494 92.5196C73.8764 90.695 74.8817 88.2662 74.8817 85.6854C74.8817 83.102 73.8764 80.6755 72.0494 78.8486L67.6872 74.4864C69.3159 74.0562 70.824 73.2394 72.0494 72.014C73.8764 70.1871 74.8817 67.7606 74.8817 65.1772C74.8817 62.5961 73.8764 60.1674 72.0494 58.343L65.9764 52.27C67.6077 51.8398 69.1157 51.023 70.3409 49.7976C72.1678 47.9729 73.1732 45.5467 73.1732 42.9633C73.1732 40.38 72.1678 37.9535 70.3409 36.1291L53.202 18.9876V2.41657C53.202 1.08269 52.1193 0 50.7854 0C49.4515 0 48.3688 1.08269 48.3688 2.41657V15.2731C44.867 13.9101 40.6088 14.5966 37.8733 17.3298C34.8742 20.3337 34.3038 24.8165 36.0826 28.4271C34.2073 28.7581 32.4239 29.6137 31.0365 31.0031C28.0592 33.983 27.4744 38.4222 29.2048 42.0208C27.3223 42.3808 25.5871 43.287 24.2023 44.6719C21.2249 47.6518 20.6376 52.0935 22.3705 55.6919C20.4855 56.0518 18.7529 56.9581 17.368 58.343C15.5411 60.1676 14.5357 62.5964 14.5357 65.1772C14.5357 67.7606 15.5411 70.1871 17.368 72.014L37.1653 91.8113C38.9894 93.6386 41.4182 94.644 43.999 94.644ZM41.2899 20.7472C42.2035 19.8361 43.4165 19.3334 44.707 19.3334C45.9998 19.3334 47.2131 19.8361 48.1267 20.7472L49.0766 21.697L66.9237 39.5465C67.8373 40.4601 68.3397 41.6731 68.3397 42.9636C68.3397 44.2542 67.8371 45.4674 66.9237 46.3807C65.0968 48.2054 61.9139 48.2054 60.0895 46.3807L41.2902 27.584C39.4074 25.6987 39.4074 22.6322 41.2899 20.7472ZM34.4531 34.4205C35.3667 33.5069 36.5822 33.0042 37.8728 33.0042C39.1633 33.0042 40.3766 33.5069 41.2899 34.4205L68.632 61.7604C69.5456 62.674 70.048 63.8869 70.048 65.1775C70.048 66.4703 69.5453 67.6836 68.632 68.5972C66.8073 70.4219 63.6221 70.4219 61.7978 68.5972L51.1643 57.9638L37.8728 44.6722C37.8702 44.6696 37.8702 44.6696 37.8679 44.6674L34.4531 41.2551C32.5706 39.3701 32.5706 36.3032 34.4531 34.4205ZM27.6188 48.0893C28.5324 47.1782 29.7454 46.6756 31.0385 46.6756C32.3265 46.6756 33.5397 47.1757 34.4508 48.0845L47.7472 61.3809L68.632 82.2682C69.5456 83.1793 70.048 84.3926 70.048 85.6854C70.048 86.9759 69.5453 88.1892 68.632 89.1025C66.8073 90.9272 63.6221 90.9272 61.7978 89.1025L50.8406 78.1476C50.8406 78.1451 50.8381 78.1428 50.8358 78.1403L40.937 68.2415L27.6211 54.9256C25.7364 53.0411 25.7364 49.9743 27.6188 48.0893ZM19.3683 65.1775C19.3683 63.8869 19.8709 62.6737 20.7846 61.7604C21.6982 60.8493 22.9111 60.3466 24.2017 60.3466C25.4945 60.3466 26.7078 60.8493 27.6188 61.7604L29.0133 63.1549L47.426 81.5676C49.3014 83.4526 49.3014 86.512 47.4187 88.3948C45.594 90.2195 42.4088 90.2217 40.5819 88.3948L20.7846 68.5975C19.8709 67.6836 19.3683 66.4703 19.3683 65.1775Z" fill="white"/>
<path d="M120.798 60.4166C120.798 61.7505 121.878 62.8331 123.215 62.8331C124.549 62.8331 125.631 61.7505 125.631 60.4166C125.631 42.9489 118.34 32.6539 113.983 26.5036C112.712 24.7081 111.132 22.475 111.132 21.75V2.41657C111.132 1.08269 110.049 0 108.715 0C107.379 0 106.299 1.08269 106.299 2.41657V21.75C106.299 24.0119 107.867 26.2306 110.042 29.2974C114.324 35.3463 120.798 44.4861 120.798 60.4166Z" fill="white"/>
<path d="M50.7851 135.333C49.4512 135.333 48.3685 136.416 48.3685 137.75V142.583C48.3685 143.917 49.4512 145 50.7851 145C52.119 145 53.2017 143.917 53.2017 142.583V137.75C53.2017 136.416 52.119 135.333 50.7851 135.333Z" fill="white"/>
<path d="M114.887 63.2394C109.203 59.4501 91.3511 49.0971 90.4619 48.587C88.8476 47.7822 87.0544 47.8935 85.4158 48.9085C81.8825 51.0908 79.7149 57.0817 79.7149 60.4167C79.7149 65.0593 82.9726 67.8817 86.4237 70.8689C87.6199 71.9032 88.855 72.9762 90.0897 74.2087L102.173 86.2921C102.973 87.0945 103.729 87.8509 103.833 88.078C103.877 88.2134 103.882 88.728 103.882 89.2332C103.311 90.7605 98.8478 95.8644 95.0053 99.7117L68.3471 123.951C67.6439 124.642 66.1599 125.667 65.2152 125.667H43.4652C40.7997 125.667 38.6317 123.499 38.6317 120.833C38.6317 118.168 40.7994 116 43.4652 116H60.3817C63.7023 116 66.6023 113.194 66.9237 112.875L83.8403 95.9584C84.7828 95.0137 84.7828 93.4861 83.8403 92.5413C82.8953 91.5962 81.3657 91.5962 80.4232 92.5413L63.5137 109.451C62.8105 110.142 61.3265 111.167 60.3817 111.167H43.4652H36.2152C33.5497 111.167 31.3817 108.999 31.3817 106.333C31.3817 103.668 33.5494 101.5 36.2152 101.5H55.5486C56.8825 101.5 57.9652 100.417 57.9652 99.0833C57.9652 97.7494 56.8825 96.6667 55.5486 96.6667H36.2152H28.9652C26.2997 96.6667 24.1317 94.4991 24.1317 91.8333C24.1317 90.6396 24.569 89.4963 25.3617 88.6119C26.2535 87.6161 26.1688 86.0888 25.1756 85.197C24.1799 84.3052 22.6526 84.3921 21.7633 85.3856C20.1731 87.1593 19.2983 89.4482 19.2983 91.8333C19.2983 96.8165 23.0997 100.881 27.9476 101.398C27.0776 102.848 26.5483 104.523 26.5483 106.333C26.5483 111.317 30.3497 115.381 35.1976 115.898C34.3276 117.348 33.7983 119.023 33.7983 120.833C33.7983 126.165 38.1339 130.5 43.4649 130.5H65.2149C68.5354 130.5 71.4354 127.694 71.6747 127.455L98.3403 103.208C108.715 92.8336 108.715 90.2624 108.715 89.4164C108.715 86.2094 108.321 85.6054 105.59 82.8744L93.5069 70.791C92.1512 69.4328 90.7881 68.2561 89.5871 67.2144C86.2761 64.3459 84.5483 62.7413 84.5483 60.4164C84.5483 57.3666 87.1487 52.9079 88.1685 52.8402C88.352 52.9464 106.646 63.5532 112.207 67.2603C118.457 71.4265 125.632 77.9855 125.632 91.833C125.632 102.205 117.475 116.268 112.079 125.572C108.222 132.22 106.369 135.514 106.369 137.75V142.583C106.369 143.917 107.451 145 108.785 145C110.119 145 111.202 143.917 111.202 142.583V137.776C111.301 136.549 113.935 132.005 116.26 127.998C122.253 117.662 130.465 103.508 130.465 91.833C130.465 75.5114 121.574 67.6982 114.887 63.2394Z" fill="white"/>
</svg>
