<svg width="116" height="116" viewBox="0 0 116 116" fill="none" xmlns="http://www.w3.org/2000/svg">
<path d="M113.649 40.6542L102.805 26.211C102.38 25.6446 101.884 25.149 101.365 24.677V7.40178C101.365 3.41338 98.1318 0.180176 94.1434 0.180176H21.8684C17.88 0.180176 14.635 3.41338 14.635 7.40178V24.677C14.1158 25.149 13.6084 25.6328 13.1954 26.1992L2.35119 40.6542C0.946993 42.5186 0.179993 44.8196 0.179993 47.156V50.7668C0.179993 56.7494 5.04159 61.611 11.0242 61.611V108.587C11.0242 112.575 14.2574 115.808 18.2576 115.808H97.7542C101.743 115.808 104.988 112.575 104.988 108.587V61.611C110.97 61.611 115.832 56.7494 115.832 50.7668V47.156C115.82 44.8196 115.053 42.5186 113.649 40.6542ZM94.1434 7.40178V21.8568H21.8684V7.40178H94.1434ZM37.0196 54.3894H21.8802L36.3352 29.0902H44.2412L37.0196 54.3894ZM48.0054 29.0902H56.1946V54.3894H40.772L48.0054 29.0902ZM59.8054 29.0902H67.9946L75.228 54.3894H59.8054V29.0902ZM71.747 29.0902H79.653L94.108 54.3894H78.9804L71.747 29.0902ZM7.40159 50.7668V47.156C7.40159 46.3772 7.64939 45.6102 8.12139 44.9848L18.9656 30.5298C19.65 29.6212 20.7238 29.0902 21.8566 29.0902H32.158L17.7148 54.3894H11.0242C9.02999 54.3894 7.40159 52.7728 7.40159 50.7668ZM72.455 108.587H45.3504V72.4552H72.455V108.587ZM97.7542 108.587H76.0658V72.4552C76.0658 70.461 74.4374 68.8444 72.455 68.8444H45.3504C43.3562 68.8444 41.7396 70.461 41.7396 72.4552V108.599H18.2458V61.611H97.7424V108.587H97.7542ZM108.598 50.7668C108.598 52.761 106.982 54.3776 104.988 54.3776H98.2852L83.8184 29.0902H94.1316C95.2644 29.0902 96.3382 29.6212 97.0226 30.5298L107.867 44.9848C108.339 45.6102 108.598 46.3654 108.598 47.156V50.7668Z" fill="white"/>
</svg>
